<svg width="386.59999999999997px" height="122px" xmlns="http://www.w3.org/2000/svg" viewBox="56.70000000000002 14 386.59999999999997 122" style="background:#e00" preserveAspectRatio="xMidYMid"><defs><filter id="editing-lego" x="-100%" y="-100%" width="300%" height="300%"><feFlood flood-color="#000" result="f1"></feFlood><feFlood flood-color="#ff0" result="f2"></feFlood><feMorphology operator="dilate" radius="3" in="SourceAlpha"></feMorphology><feConvolveMatrix order="5,5" divisor="1" result="cm1" kernelMatrix="0 1 1 1 0  1 0 0 0 1  1 0 0 0 1  1 0 0 0 1  0 1 1 1 0"></feConvolveMatrix><feComposite operator="in" in="f1" in2="cm1" result="c1"></feComposite><feMorphology operator="dilate" radius="3"></feMorphology><feConvolveMatrix order="5,5" divisor="1" result="cm2" kernelMatrix="0 1 1 1 0  1 0 0 0 1  1 0 0 0 1  1 0 0 0 1  0 1 1 1 0"></feConvolveMatrix><feComposite operator="in" in="f2" in2="cm2" result="c2"></feComposite><feMerge><feMergeNode in="c2"></feMergeNode><feMergeNode in="c1"></feMergeNode><feMergeNode in="SourceGraphic"></feMergeNode></feMerge></filter></defs><g filter="url(#editing-lego)"><g transform="translate(115.66499543190002, 102.77499961853027)"><path d="M14.21 0L0.51 0L8.32-42.05L8.32-42.05Q14.66-42.75 23.90-42.75L23.90-42.75L23.90-42.75Q33.15-42.75 37.44-40.06L37.44-40.06L37.44-40.06Q41.73-37.38 41.73-31.97L41.73-31.97L41.73-31.97Q41.73-26.56 38.94-23.17L38.94-23.17L38.94-23.17Q36.16-19.78 31.36-18.69L31.36-18.69L31.36-18.69Q32.45-13.38 34.94-9.09L34.94-9.09L34.94-9.09Q37.25-5.06 39.94-3.78L39.94-3.78L39.94-3.78Q38.98-1.09 37.02 0.10L37.02 0.10L37.02 0.10Q35.07 1.28 32.29 1.28L32.29 1.28L32.29 1.28Q29.50 1.28 27.33-0.35L27.33-0.35L27.33-0.35Q25.15-1.98 23.42-4.99L23.42-4.99L23.42-4.99Q19.78-11.52 19.39-21.82L19.39-21.82L19.84-21.82L19.84-21.82Q24.58-21.95 26.94-24.42L26.94-24.42L26.94-24.42Q29.31-26.88 29.31-32.06L29.31-32.06L29.31-32.06Q29.31-38.53 23.87-38.78L23.87-38.78L22.46-38.78L22.46-38.78Q21.89-38.78 21.57-38.72L21.57-38.72L14.21 0ZM70.59-10.82L70.59-10.82L70.59-10.82Q72.19-9.73 72.19-7.33L72.19-7.33L72.19-7.33Q72.19-4.93 70.98-3.39L70.98-3.39L70.98-3.39Q69.76-1.86 67.78-0.83L67.78-0.83L67.78-0.83Q63.68 1.28 59.26 1.28L59.26 1.28L59.26 1.28Q54.85 1.28 52.26 0.32L52.26 0.32L52.26 0.32Q49.66-0.64 47.94-2.43L47.94-2.43L47.94-2.43Q44.54-5.82 44.54-12.03L44.54-12.03L44.54-12.03Q44.54-21.70 49.79-27.58L49.79-27.58L49.79-27.58Q55.42-33.92 65.22-33.92L65.22-33.92L65.22-33.92Q71.30-33.92 74.30-31.36L74.30-31.36L74.30-31.36Q76.54-29.44 76.54-26.30L76.54-26.30L76.54-26.30Q76.54-15.04 57.09-15.04L57.09-15.04L57.09-15.04Q56.83-13.38 56.83-11.97L56.83-11.97L56.83-11.97Q56.83-9.02 58.14-7.90L58.14-7.90L58.14-7.90Q59.46-6.78 61.89-6.78L61.89-6.78L61.89-6.78Q64.32-6.78 66.91-7.90L66.91-7.90L66.91-7.90Q69.50-9.02 70.59-10.82ZM57.54-17.79L57.54-17.79L57.54-17.79Q62.08-17.79 64.70-20.61L64.70-20.61L64.70-20.61Q67.33-23.30 67.33-27.58L67.33-27.58L67.33-27.58Q67.33-29.06 66.78-29.86L66.78-29.86L66.78-29.86Q66.24-30.66 65.15-30.66L65.15-30.66L65.15-30.66Q64.06-30.66 63.14-30.24L63.14-30.24L63.14-30.24Q62.21-29.82 61.25-28.42L61.25-28.42L61.25-28.42Q58.88-25.22 57.54-17.79ZM105.79 1.28L105.79 1.28L105.79 1.28Q98.05 1.28 98.05-4.74L98.05-4.74L98.05-4.74Q98.11-6.40 98.62-9.22L98.62-9.22L99.78-15.10L99.78-15.10Q101.50-23.42 101.50-25.28L101.50-25.28L101.50-25.28Q101.50-28.99 99.33-28.99L99.33-28.99L99.33-28.99Q95.68-28.99 93.76-19.46L93.76-19.46L89.98 0L77.12 1.28L83.78-32.70L94.27-33.92L93.25-27.65L93.25-27.65Q96.26-33.92 105.47-33.92L105.47-33.92L105.47-33.92Q109.95-33.92 111.84-32.03L111.84-32.03L111.84-32.03Q113.73-30.14 113.73-25.92L113.73-25.92L113.73-25.92Q113.73-21.95 111.68-12.67L111.68-12.67L111.68-12.67Q110.72-8.51 110.72-6.94L110.72-6.94L110.72-6.94Q110.72-5.38 111.58-4.48L111.58-4.48L111.58-4.48Q112.45-3.58 113.73-3.46L113.73-3.46L113.73-3.46Q113.09-1.28 110.88 0L110.88 0L110.88 0Q108.67 1.28 105.79 1.28ZM150.27-26.62L150.27-26.62L150.27-26.62Q150.27-23.94 148.03-22.27L148.03-22.27L148.03-22.27Q145.79-20.61 142.14-20.61L142.14-20.61L142.14-20.61Q140.61-20.61 139.71-21.06L139.71-21.06L139.71-21.06Q140.42-22.72 140.64-24.80L140.64-24.80L140.64-24.80Q140.86-26.88 140.86-27.46L140.86-27.46L140.86-27.46Q140.86-30.14 139.01-30.14L139.01-30.14L139.01-30.14Q137.73-30.14 136.29-28.54L136.29-28.54L136.29-28.54Q134.85-26.94 133.63-24.45L133.63-24.45L133.63-24.45Q130.94-18.69 130.94-12.86L130.94-12.86L130.94-12.86Q130.94-9.66 132.16-8.22L132.16-8.22L132.16-8.22Q133.38-6.78 136.06-6.78L136.06-6.78L136.06-6.78Q139.78-6.78 142.72-9.86L142.72-9.86L142.72-9.86Q143.55-10.82 144-11.90L144-11.90L144-11.90Q146.43-10.62 146.43-7.10L146.43-7.10L146.43-7.10Q146.43-3.52 142.46-1.15L142.46-1.15L142.46-1.15Q138.37 1.28 131.84 1.28L131.84 1.28L131.84 1.28Q118.85 1.28 118.85-12.48L118.85-12.48L118.85-12.48Q118.85-22.53 124.54-28.29L124.54-28.29L124.54-28.29Q130.05-33.92 140.16-33.92L140.16-33.92L140.16-33.92Q150.27-33.92 150.27-26.62ZM154.78-1.92L154.78-1.92L154.78-1.92Q153.28-3.58 152.61-6.21L152.61-6.21L152.61-6.21Q151.94-8.83 151.94-13.12L151.94-13.12L151.94-13.12Q151.94-17.41 153.41-21.31L153.41-21.31L153.41-21.31Q154.88-25.22 157.57-28.03L157.57-28.03L157.57-28.03Q163.07-33.92 172.16-33.92L172.16-33.92L172.16-33.92Q175.42-33.92 177.79-32.83L177.79-32.83L188.74-33.92L184-8.96L184-8.96Q183.81-8.19 183.81-6.78L183.81-6.78L183.81-6.78Q183.81-5.38 184.67-4.48L184.67-4.48L184.67-4.48Q185.54-3.58 186.82-3.46L186.82-3.46L186.82-3.46Q186.18-1.28 183.84 0L183.84 0L183.84 0Q181.50 1.28 178.88 1.28L178.88 1.28L178.88 1.28Q176.26 1.28 174.50 0.29L174.50 0.29L174.50 0.29Q172.74-0.70 172.22-2.37L172.22-2.37L172.22-2.37Q171.20-0.77 169.02 0.26L169.02 0.26L169.02 0.26Q166.85 1.28 163.94 1.28L163.94 1.28L163.94 1.28Q161.02 1.28 158.66 0.51L158.66 0.51L158.66 0.51Q156.29-0.26 154.78-1.92ZM168.29-27.90L168.29-27.90L168.29-27.90Q167.55-26.75 166.91-24.80L166.91-24.80L166.91-24.80Q166.27-22.85 165.22-17.63L165.22-17.63L165.22-17.63Q164.16-12.42 164.16-8.70L164.16-8.70L164.16-8.70Q164.16-4.99 164.74-3.90L164.74-3.90L164.74-3.90Q165.31-2.82 166.34-2.82L166.34-2.82L166.34-2.82Q168.38-2.82 169.89-4.77L169.89-4.77L169.89-4.77Q171.39-6.72 171.97-10.18L171.97-10.18L175.36-28.93L175.36-28.93Q174.02-30.08 172.45-30.08L172.45-30.08L172.45-30.08Q170.88-30.08 169.95-29.57L169.95-29.57L169.95-29.57Q169.02-29.06 168.29-27.90ZM219.26 1.28L219.26 1.28L219.26 1.28Q211.52 1.28 211.52-4.74L211.52-4.74L211.52-4.74Q211.58-6.40 212.10-9.22L212.10-9.22L213.25-15.10L213.25-15.10Q214.98-23.42 214.98-25.28L214.98-25.28L214.98-25.28Q214.98-28.99 212.80-28.99L212.80-28.99L212.80-28.99Q209.15-28.99 207.23-19.46L207.23-19.46L203.46 0L190.59 1.28L197.25-32.70L207.74-33.92L206.72-27.65L206.72-27.65Q209.73-33.92 218.94-33.92L218.94-33.92L218.94-33.92Q223.42-33.92 225.31-32.03L225.31-32.03L225.31-32.03Q227.20-30.14 227.20-25.92L227.20-25.92L227.20-25.92Q227.20-21.95 225.15-12.67L225.15-12.67L225.15-12.67Q224.19-8.51 224.19-6.94L224.19-6.94L224.19-6.94Q224.19-5.38 225.06-4.48L225.06-4.48L225.06-4.48Q225.92-3.58 227.20-3.46L227.20-3.46L227.20-3.46Q226.56-1.28 224.35 0L224.35 0L224.35 0Q222.14 1.28 219.26 1.28ZM236.86-26.75L236.86-26.75L236.86-26.75Q239.04-29.82 242.34-31.87L242.34-31.87L242.34-31.87Q245.63-33.92 249.66-33.92L249.66-33.92L249.66-33.92Q253.70-33.92 255.62-32.64L255.62-32.64L268.16-33.92L263.81-9.34L263.81-9.34Q261.57 3.20 256.83 8.13L256.83 8.13L256.83 8.13Q252.29 12.80 243.46 12.80L243.46 12.80L243.46 12.80Q236.74 12.80 232.90 10.69L232.90 10.69L232.90 10.69Q229.06 8.58 229.06 5.06L229.06 5.06L229.06 5.06Q229.06 2.43 231.04 0.93L231.04 0.93L231.04 0.93Q233.02-0.58 236.10-0.58L236.10-0.58L236.10-0.58Q238.78-0.58 240.83 0.64L240.83 0.64L240.83 0.64Q242.05 1.28 242.62 2.18L242.62 2.18L242.62 2.18Q241.15 3.46 241.15 5.57L241.15 5.57L241.15 5.57Q241.15 8.32 243.71 8.32L243.71 8.32L243.71 8.32Q248.00 8.32 250.43-1.79L250.43-1.79L250.43-1.79Q251.14-4.54 251.71-7.30L251.71-7.30L251.71-7.30Q248.83-3.78 242.30-3.78L242.30-3.78L242.30-3.78Q237.76-3.78 235.14-5.95L235.14-5.95L235.14-5.95Q232.51-8.13 232.51-13.25L232.51-13.25L232.51-13.25Q232.51-16.45 233.60-20.06L233.60-20.06L233.60-20.06Q234.69-23.68 236.86-26.75ZM245.18-13.06L245.18-13.06L245.18-13.06Q245.18-8.70 247.42-8.70L247.42-8.70L247.42-8.70Q248.96-8.70 250.43-10.37L250.43-10.37L250.43-10.37Q251.58-11.71 252.03-13.70L252.03-13.70L255.30-30.14L255.30-30.14Q254.98-30.21 254.66-30.34L254.66-30.34L254.66-30.34Q254.02-30.59 253.18-30.59L253.18-30.59L253.18-30.59Q249.28-30.59 246.98-24.19L246.98-24.19L246.98-24.19Q245.18-19.20 245.18-13.06Z" fill="#fff"></path></g></g><style>text {
  font-size: 64px;
  font-family: Arial Black;
  dominant-baseline: central;
  text-anchor: middle;
}</style></svg>